<mxfile host="app.diagrams.net" agent="Mozilla/5.0 (Windows NT 10.0; Win64; x64; rv:143.0) Gecko/20100101 Firefox/143.0" version="28.2.5">
  <diagram name="Page-1" id="f1a-iEFjnnUIoMZhEfLN">
    <mxGraphModel dx="1426" dy="779" grid="1" gridSize="10" guides="1" tooltips="1" connect="1" arrows="1" fold="1" page="1" pageScale="1" pageWidth="827" pageHeight="1169" math="0" shadow="0">
      <root>
        <mxCell id="0" />
        <mxCell id="1" parent="0" />
        <mxCell id="euO4x6DYsl9R_yWPSeMn-4" value="" style="edgeStyle=orthogonalEdgeStyle;rounded=0;orthogonalLoop=1;jettySize=auto;html=1;" edge="1" parent="1" source="euO4x6DYsl9R_yWPSeMn-1" target="euO4x6DYsl9R_yWPSeMn-3">
          <mxGeometry relative="1" as="geometry" />
        </mxCell>
        <mxCell id="euO4x6DYsl9R_yWPSeMn-21" value="Reference" style="edgeLabel;html=1;align=center;verticalAlign=middle;resizable=0;points=[];" vertex="1" connectable="0" parent="euO4x6DYsl9R_yWPSeMn-4">
          <mxGeometry x="-0.2" y="-1" relative="1" as="geometry">
            <mxPoint x="2" y="-6" as="offset" />
          </mxGeometry>
        </mxCell>
        <mxCell id="euO4x6DYsl9R_yWPSeMn-1" value="MsQuic Buffer" style="rounded=0;whiteSpace=wrap;html=1;" vertex="1" parent="1">
          <mxGeometry x="80" y="240" width="110" height="90" as="geometry" />
        </mxCell>
        <mxCell id="euO4x6DYsl9R_yWPSeMn-3" value="Stream Callback" style="rounded=0;whiteSpace=wrap;html=1;" vertex="1" parent="1">
          <mxGeometry x="260" y="240" width="110" height="90" as="geometry" />
        </mxCell>
        <mxCell id="euO4x6DYsl9R_yWPSeMn-12" value="" style="edgeStyle=orthogonalEdgeStyle;rounded=0;orthogonalLoop=1;jettySize=auto;html=1;" edge="1" parent="1" source="euO4x6DYsl9R_yWPSeMn-6" target="euO4x6DYsl9R_yWPSeMn-7">
          <mxGeometry relative="1" as="geometry" />
        </mxCell>
        <mxCell id="euO4x6DYsl9R_yWPSeMn-17" value="Reference" style="edgeLabel;html=1;align=center;verticalAlign=middle;resizable=0;points=[];" vertex="1" connectable="0" parent="euO4x6DYsl9R_yWPSeMn-12">
          <mxGeometry x="-0.3" relative="1" as="geometry">
            <mxPoint as="offset" />
          </mxGeometry>
        </mxCell>
        <mxCell id="euO4x6DYsl9R_yWPSeMn-16" value="" style="edgeStyle=orthogonalEdgeStyle;rounded=0;orthogonalLoop=1;jettySize=auto;html=1;" edge="1" parent="1" source="euO4x6DYsl9R_yWPSeMn-6" target="euO4x6DYsl9R_yWPSeMn-15">
          <mxGeometry relative="1" as="geometry" />
        </mxCell>
        <mxCell id="euO4x6DYsl9R_yWPSeMn-18" value="Drain" style="edgeLabel;html=1;align=center;verticalAlign=middle;resizable=0;points=[];" vertex="1" connectable="0" parent="euO4x6DYsl9R_yWPSeMn-16">
          <mxGeometry x="-0.4796" relative="1" as="geometry">
            <mxPoint as="offset" />
          </mxGeometry>
        </mxCell>
        <mxCell id="euO4x6DYsl9R_yWPSeMn-6" value="Buffer 1" style="rounded=0;whiteSpace=wrap;html=1;" vertex="1" parent="1">
          <mxGeometry x="414" y="110" width="110" height="90" as="geometry" />
        </mxCell>
        <mxCell id="euO4x6DYsl9R_yWPSeMn-13" value="" style="edgeStyle=orthogonalEdgeStyle;rounded=0;orthogonalLoop=1;jettySize=auto;html=1;dashed=1;" edge="1" parent="1" source="euO4x6DYsl9R_yWPSeMn-7" target="euO4x6DYsl9R_yWPSeMn-8">
          <mxGeometry relative="1" as="geometry" />
        </mxCell>
        <mxCell id="euO4x6DYsl9R_yWPSeMn-7" value="Buffer 2" style="rounded=0;whiteSpace=wrap;html=1;" vertex="1" parent="1">
          <mxGeometry x="414" y="240" width="110" height="90" as="geometry" />
        </mxCell>
        <mxCell id="euO4x6DYsl9R_yWPSeMn-8" value="Buffer N" style="rounded=0;whiteSpace=wrap;html=1;" vertex="1" parent="1">
          <mxGeometry x="414" y="370" width="110" height="90" as="geometry" />
        </mxCell>
        <mxCell id="euO4x6DYsl9R_yWPSeMn-11" value="" style="endArrow=classic;html=1;rounded=0;exitX=1;exitY=0.5;exitDx=0;exitDy=0;entryX=0;entryY=0.5;entryDx=0;entryDy=0;" edge="1" parent="1" source="euO4x6DYsl9R_yWPSeMn-3" target="euO4x6DYsl9R_yWPSeMn-8">
          <mxGeometry width="50" height="50" relative="1" as="geometry">
            <mxPoint x="390" y="400" as="sourcePoint" />
            <mxPoint x="440" y="350" as="targetPoint" />
            <Array as="points">
              <mxPoint x="390" y="285" />
              <mxPoint x="390" y="415" />
            </Array>
          </mxGeometry>
        </mxCell>
        <mxCell id="euO4x6DYsl9R_yWPSeMn-20" value="Buffer Reference" style="edgeLabel;html=1;align=center;verticalAlign=middle;resizable=0;points=[];" vertex="1" connectable="0" parent="euO4x6DYsl9R_yWPSeMn-11">
          <mxGeometry x="-0.0103" y="1" relative="1" as="geometry">
            <mxPoint as="offset" />
          </mxGeometry>
        </mxCell>
        <mxCell id="euO4x6DYsl9R_yWPSeMn-15" value="Rx Thread" style="rounded=0;whiteSpace=wrap;html=1;" vertex="1" parent="1">
          <mxGeometry x="580" y="240" width="110" height="90" as="geometry" />
        </mxCell>
      </root>
    </mxGraphModel>
  </diagram>
</mxfile>
